<svg xmlns="http://www.w3.org/2000/svg" xmlns:xlink="http://www.w3.org/1999/xlink"
    preserveAspectRatio="xMidYMid meet" version="1.0" viewBox="0.0 0.0 237.4 237.4"
    zoomAndPan="magnify" style="fill: rgb(255, 255, 255);" original_string_length="816">
    <g>
        <g id="__id263_srmfgml6cr">
            <path
                d="M171.1,133.3v36h-22.3v-36c0-5.2,0-17.8-11.4-17.8c-13,0-13.7,13.1-13.7,13.1v40.8h-22.4V97.3h22.4v9.9 c5.3-10.8,16.1-11.6,23.2-11.6c8.1,0,15.3,3.1,19.5,10.1C170,111.6,171.1,120,171.1,133.3z"
                style="fill: inherit;" />
            <circle cx="79.3" cy="74.6" r="13" style="fill: inherit;" />
            <path d="M68.2 97.3H90.5V169.39999999999998H68.2z" style="fill: inherit;" />
        </g>
        <g id="__id264_srmfgml6cr">
            <path
                d="M118.7,237.4C53.3,237.4,0,184.2,0,118.7S53.3,0,118.7,0s118.7,53.3,118.7,118.7S184.2,237.4,118.7,237.4z M118.7,6.5 C56.8,6.5,6.5,56.8,6.5,118.7s50.3,112.2,112.2,112.2s112.2-50.3,112.2-112.2S180.6,6.5,118.7,6.5z"
                style="fill: inherit;" />
        </g>
    </g>
</svg>