<svg xmlns="http://www.w3.org/2000/svg" xmlns:xlink="http://www.w3.org/1999/xlink" preserveAspectRatio="xMidYMid meet" version="1.1" viewBox="84.1 121.9 257.0 183.8" zoomAndPan="magnify" style="fill: rgb(0, 0, 0);" original_string_length="2029">
 <g id="__id296_s5ah8jzv7b">
  <g id="__id297_s5ah8jzv7b"><path d="m212.38 222.75c0-35.55 28.81-64.37 64.37-64.37 35.55 0 64.36 28.82 64.36 64.37 0 29.98-20.49 55.16-48.22 62.33 3.75 6.81 9.14 14.32 16.04 18.08 0 0-33.66 2.56-51.47-18.98-26.13-8.2-45.08-32.6-45.08-61.43" style="fill: rgb(97, 166, 173);"/></g>
  <g id="__id298_s5ah8jzv7b"><path d="m308.8 205.31h-67.87c-2.47 0-4.48-2-4.48-4.47s2.01-4.47 4.48-4.47h67.87c2.47 0 4.47 2 4.47 4.47s-2 4.47-4.47 4.47" style="fill: rgb(255, 255, 255);"/></g>
  <g id="__id299_s5ah8jzv7b"><path d="m308.8 226.68h-67.87c-2.47 0-4.48-2-4.48-4.47s2.01-4.47 4.48-4.47h67.87c2.47 0 4.47 2 4.47 4.47s-2 4.47-4.47 4.47" style="fill: rgb(255, 255, 255);"/></g>
  <g id="__id300_s5ah8jzv7b"><path d="m308.8 248.05h-67.87c-2.47 0-4.48-2.01-4.48-4.48 0-2.46 2.01-4.46 4.48-4.46h67.87c2.47 0 4.47 2 4.47 4.46 0 2.47-2 4.48-4.47 4.48" style="fill: rgb(255, 255, 255);"/></g>
  <g id="__id301_s5ah8jzv7b"><path d="m211.62 136.77c-2.87 0-5.68 0.23-8.42 0.68-7.33-9.43-18.78-15.5-31.65-15.5-16.94 0-31.42 10.5-37.29 25.34-3.23-0.83-6.62-1.28-10.1-1.28-22.14 0-40.078 17.94-40.078 40.07s17.938 40.08 40.078 40.08c0.87 0 1.73-0.04 2.59-0.09 7.55 10.8 20.07 17.87 34.24 17.87 4.9 0 9.6-0.85 13.97-2.4-0.29 6.46-1.83 21.11-9.82 26.25 0 0 30.75-1.65 42.12-27.37 1.44 0.12 2.89 0.19 4.36 0.19 28.67 0 51.92-23.25 51.92-51.92 0-28.68-23.25-51.92-51.92-51.92" style="fill: rgb(78, 133, 139);"/></g>
  <g id="__id302_s5ah8jzv7b"><path d="m149.85 188.22c0 5.21-4.23 9.44-9.45 9.44-5.21 0-9.44-4.23-9.44-9.44 0-5.22 4.23-9.45 9.44-9.45 5.22 0 9.45 4.23 9.45 9.45" style="fill: rgb(255, 255, 255);"/></g>
  <g id="__id303_s5ah8jzv7b"><path d="m183.25 188.22c0 5.21-4.23 9.44-9.44 9.44s-9.44-4.23-9.44-9.44c0-5.22 4.23-9.45 9.44-9.45s9.44 4.23 9.44 9.45" style="fill: rgb(255, 255, 255);"/></g>
  <g id="__id304_s5ah8jzv7b"><path d="m216.66 188.22c0 5.21-4.23 9.44-9.44 9.44-5.22 0-9.45-4.23-9.45-9.44 0-5.22 4.23-9.45 9.45-9.45 5.21 0 9.44 4.23 9.44 9.45" style="fill: rgb(255, 255, 255);"/></g>
 </g>
</svg>