<svg xmlns="http://www.w3.org/2000/svg" fill="none" style="fill: none;" viewBox="0 0 465 465"
    original_string_length="2156">
    <path
        d="M114.432 418.968C112.258 421.471 109.229 423.075 105.936 423.466C102.644 423.856 99.3245 423.006 96.625 421.081C65.9828 399.016 41.1763 369.819 24.3515 336.015C7.52678 302.21 -0.809821 264.816 0.0619795 227.066C0.93378 189.316 10.9881 152.347 29.3554 119.355C47.7228 86.3632 73.8503 58.3422 105.478 37.7151C108.202 35.917 111.49 35.1767 114.722 35.6338C117.953 36.0909 120.906 37.7137 123.025 40.1967C190.561 120.044 255.345 257.537 114.432 418.968Z"
        style="fill: rgb(51, 108, 114);" />
    <path
        d="M333.604 432.211C333.806 434.962 333.152 437.709 331.731 440.073C330.309 442.437 328.191 444.303 325.666 445.414C297.418 457.738 267.007 464.341 236.193 464.84C205.378 465.339 174.769 459.725 146.137 448.322C144.489 447.668 142.987 446.693 141.719 445.454C140.451 444.215 139.442 442.735 138.75 441.103C138.059 439.47 137.698 437.716 137.691 435.943C137.683 434.17 138.027 432.412 138.705 430.774C164.6 368.444 215.413 270.055 275.87 277.04C325.698 282.805 328.149 356.974 333.604 432.211Z"
        style="fill: rgb(21, 50, 58);" />
    <path
        d="M145.054 30.2278C144.08 26.9499 144.396 23.4238 145.937 20.3713C147.478 17.3187 150.128 14.9706 153.344 13.8078C178.706 4.64083 205.472 -0.0317553 232.44 0.000162418C331.959 0.000162418 416.867 62.5487 450.012 150.475C451.122 153.452 451.134 156.726 450.046 159.711C448.958 162.695 446.842 165.194 444.077 166.758C252.381 275.581 174.786 130.836 145.054 30.2278Z"
        style="fill: rgb(79, 82, 80);" />
    <path
        d="M464.871 232.44C464.902 268.287 456.628 303.653 440.697 335.766C424.766 367.878 401.612 395.863 373.05 417.525C371.362 418.81 369.392 419.676 367.302 420.05C365.213 420.424 363.065 420.295 361.035 419.675C359.005 419.055 357.152 417.961 355.628 416.484C354.104 415.006 352.954 413.187 352.272 411.177C305.949 274.471 387.535 205.955 440.777 177.111C442.617 176.111 444.665 175.557 446.758 175.493C448.85 175.43 450.929 175.858 452.826 176.744C454.723 177.63 456.385 178.949 457.679 180.595C458.973 182.241 459.863 184.167 460.277 186.219C463.341 201.435 464.879 216.919 464.871 232.44Z"
        style="fill: rgb(167, 177, 170);" />
</svg>