<svg xmlns="http://www.w3.org/2000/svg" 
xmlns:xlink="http://www.w3.org/1999/xlink" 
preserveAspectRatio="xMidYMid meet" 
version="1.0" 
viewBox="0.0 0.0 482.8 482.8" 
zoomAndPan="magnify" 
style="fill: rgb(111, 171, 178);" 
original_string_length="2887">
    <g id="__id256_szdt4vj7to">
        <path d="M468.3085938,192.7592773c-8.8056641-13.2539062-21.1679688-23.6616211-36.0478516-30.4243164 C438,147.03125,439.3828125,130.9296875,436.2373047,115.331543c-3.3837891-16.7802734-11.7353516-32.2124023-24.1513672-44.6289062 c-12.4160156-12.4160156-27.8486328-20.7675781-44.6289062-24.1513672 c-15.6015625-3.1459961-31.7001953-1.7636719-47.0039062,3.9770508 c-6.7626953-14.8798828-17.1699219-27.2431641-30.4238281-36.0488281C275.7714844,5.0068359,258.953125,0,241.3945312,0 c-0.0009766,0,0.0004883,0-0.0004883,0c-17.5576172,0-34.3774414,5.0073242-48.6347656,14.4794922 c-13.2539062,8.8051758-23.6616211,21.168457-30.4243164,36.0488281 c-15.3032227-5.7402344-31.4057617-7.1210938-47.003418-3.9770508 c-16.7802734,3.3837891-32.2128906,11.7353516-44.6289062,24.1513672S49.9350586,98.5512695,46.5512695,115.331543 c-3.1455078,15.5981445-1.7631836,31.699707,3.9770508,47.003418 c-14.8803711,6.7626953-27.2431641,17.1704102-36.0488281,30.4243164C5.0068359,207.0175781,0,223.8349609,0,241.394043 c0,17.5595703,5.0068359,34.3769531,14.4799805,48.6357422c8.8051758,13.2529297,21.168457,23.6611328,36.0488281,30.4238281 c-5.7402344,15.3037109-7.1230469,31.4042969-3.9775391,47.0029297 c3.3837891,16.7802734,11.7348633,32.2128906,24.1508789,44.6289062 c12.4165039,12.4160156,27.8486328,20.7675781,44.6293945,24.1513672 c15.5996094,3.1445312,31.6992188,1.7636719,47.0039062-3.9775391c6.762207,14.8808594,17.1704102,27.2441406,30.4243164,36.0498047 c14.2578125,9.4726562,31.0756836,14.4794922,48.6347656,14.4794922c17.5585938,0,34.3759766-5.0068359,48.6347656-14.4794922 c13.2539062-8.8056641,23.6611328-21.1689453,30.4238281-36.0488281 c15.3037109,5.7382812,31.4072266,7.1220703,47.0039062,3.9765625 c16.7802734-3.3837891,32.2128906-11.7353516,44.6289062-24.1513672s20.7675781-27.8486328,24.1513672-44.6289062 c3.1455078-15.5976562,1.7626953-31.6992188-3.9765625-47.0029297 c14.8798828-6.7626953,27.2421875-17.1708984,36.0478516-30.4248047 c9.4726562-14.2578125,14.4794922-31.0751953,14.4794922-48.6342773S477.78125,207.0175781,468.3085938,192.7592773z M330.7363281,174.8833008L228.0761719,318.378418c-1.5112305,2.1123047-3.8613281,3.46875-6.4458008,3.7207031 c-0.2919922,0.0292969-0.5839844,0.0429688-0.8745117,0.0429688c-2.2817383,0-4.4916992-0.8681641-6.1689453-2.4472656 l-61.3852539-57.796875c-3.6191406-3.4072266-3.7905273-9.1035156-0.3833008-12.7226562 c3.4086914-3.6191406,9.1044922-3.7910156,12.722168-0.3828125l53.8881836,50.7382812l96.6689453-135.1210938 c2.8916016-4.0419922,8.5146484-4.9760742,12.5556641-2.0830078 C332.6962891,165.21875,333.6289062,170.8408203,330.7363281,174.8833008z" style="fill: inherit;"/>
    </g>
</svg>